<?xml version="1.0" encoding="utf-8"?>
<!-- Generator: Adobe Illustrator 25.2.3, SVG Export Plug-In . SVG Version: 6.00 Build 0)  -->
<svg version="1.1" id="Layer_1" xmlns="http://www.w3.org/2000/svg" xmlns:xlink="http://www.w3.org/1999/xlink" x="0px" y="0px"
	 viewBox="0 0 110 110" style="enable-background:new 0 0 110 110;" xml:space="preserve">
<style type="text/css">
	.st0{fill:url(#SVGID_1_);}
	.st1{fill:url(#SVGID_2_);}
	.st2{fill:url(#SVGID_3_);}
	.st3{fill:url(#SVGID_4_);}
	.st4{fill:url(#SVGID_5_);}
	.st5{fill:url(#SVGID_6_);}
	.st6{fill:url(#SVGID_7_);}
	.st7{fill:url(#SVGID_8_);}
	.st8{fill:url(#SVGID_9_);}
	.st9{fill:url(#SVGID_10_);}
</style>
<g>
	<path d="M4.2,1h101.5c1.8,0,3.2,1.4,3.2,3.2v101.5c0,1.8-1.4,3.2-3.2,3.2H4.2c-1.8,0-3.2-1.4-3.2-3.2V4.2C1,2.4,2.4,1,4.2,1z"/>
	
		<linearGradient id="SVGID_1_" gradientUnits="userSpaceOnUse" x1="44.107" y1="69.422" x2="55.6402" y2="69.422" gradientTransform="matrix(1 0 0 -1 -1.487 109.935)">
		<stop  offset="0" style="stop-color:#CCE0F4"/>
		<stop  offset="5.431000e-02" style="stop-color:#C3DCF2"/>
		<stop  offset="0.1447" style="stop-color:#A9D2EE"/>
		<stop  offset="0.26" style="stop-color:#80C2E7"/>
		<stop  offset="0.3942" style="stop-color:#47ACDE"/>
		<stop  offset="0.4812" style="stop-color:#1E9CD7"/>
		<stop  offset="0.8652" style="stop-color:#0075BE"/>
		<stop  offset="0.9944" style="stop-color:#0086B6"/>
	</linearGradient>
	<path class="st0" d="M44.6,37c0.1-0.6,0.3-1.1,0.6-1.6c0.4-0.5,0.9-0.8,1.4-1c0.6-0.2,1.2-0.3,1.8-0.4c0.6-0.1,1.2-0.1,1.8,0
		c0.5,0,1,0.1,1.6,0.1c0.4,0.1,0.8,0.1,1.2,0.1c0.7,0.1,1.1,0.2,1.1,0.2s-0.3-0.2-0.9-0.5c-0.9-0.4-1.8-0.7-2.8-0.9
		c-0.6-0.1-1.3-0.2-1.9-0.3c-0.8-0.1-1.6,0-2.3,0.2c-0.9,0.2-1.7,0.7-2.3,1.3c-0.3,0.4-0.6,0.8-0.8,1.2c-0.2,0.4-0.3,0.9-0.4,1.3
		c0,0.2-0.1,0.4-0.1,0.6v1.8c0,0.8,0.1,1.5,0.3,2.3c0.1,0.7,0.3,1.4,0.5,2.1c0.2,0.6,0.4,1.2,0.7,1.8c0.2,0.5,0.5,1,0.8,1.4
		c0.2,0.4,0.5,0.7,0.8,1l0.6,0.6l0.2,0.2c0-0.1,0-0.2-0.1-0.3c-0.1-0.2-0.2-0.5-0.3-0.8c-0.2-0.6-0.4-1.6-0.7-2.6
		c-0.3-1.2-0.4-2.5-0.5-3.7c-0.1-0.7-0.1-1.4-0.1-2.1"/>
	
		<linearGradient id="SVGID_2_" gradientUnits="userSpaceOnUse" x1="49.6236" y1="68.2527" x2="55.8911" y2="68.2527" gradientTransform="matrix(1 0 0 -1 -1.487 109.935)">
		<stop  offset="0" style="stop-color:#CCE0F4"/>
		<stop  offset="5.431000e-02" style="stop-color:#C3DCF2"/>
		<stop  offset="0.1447" style="stop-color:#A9D2EE"/>
		<stop  offset="0.26" style="stop-color:#80C2E7"/>
		<stop  offset="0.3942" style="stop-color:#47ACDE"/>
		<stop  offset="0.4812" style="stop-color:#1E9CD7"/>
		<stop  offset="0.8652" style="stop-color:#0075BE"/>
		<stop  offset="0.9944" style="stop-color:#0086B6"/>
	</linearGradient>
	<path class="st1" d="M49.6,39.6v-0.4c0-0.3,0.2-0.6,0.4-0.8c0.3-0.2,0.6-0.3,0.9-0.4c0.4-0.1,0.7-0.1,1.1-0.1c0.6,0,1.2,0,1.8,0.1
		c0.2,0,0.3,0,0.5,0.1h0.2l-0.1-0.1c-0.2-0.1-0.3-0.2-0.4-0.3c-0.6-0.3-1.1-0.5-1.8-0.6c-0.4-0.1-0.9-0.1-1.3-0.1
		c-0.6,0-1.1,0.2-1.6,0.5c-0.5,0.4-0.9,0.9-1,1.5c0,0.1-0.1,0.3-0.1,0.4v1.2l0.1,0.4c0,0.1,0,0.3,0.1,0.4c0.1,0.3,0.1,0.5,0.3,0.8
		c0.2,0.5,0.4,0.9,0.8,1.3c0.1,0.2,0.3,0.4,0.4,0.6c0.2,0.2,0.3,0.4,0.4,0.5c0.1,0.2,0.3,0.3,0.4,0.4c0.1,0.1,0.3,0.3,0.4,0.4
		c0.3,0.3,0.6,0.4,0.8,0.6c0.2,0.2,0.4,0.3,0.7,0.4c0.2,0.1,0.4,0.2,0.4,0.3c0.1,0,0.1,0.1,0.2,0.1c-0.1-0.2-0.3-0.3-0.4-0.5
		c-0.2-0.2-0.3-0.4-0.4-0.6l-0.6-0.8c-0.1-0.1-0.2-0.3-0.3-0.4c-0.1-0.2-0.2-0.3-0.3-0.5c-0.1-0.2-0.2-0.3-0.3-0.5
		c-0.1-0.2-0.2-0.4-0.3-0.6c-0.1-0.2-0.2-0.4-0.3-0.6c-0.1-0.1-0.1-0.2-0.1-0.3c-0.1-0.1-0.1-0.2-0.1-0.3c-0.1-0.2-0.2-0.4-0.2-0.6
		c-0.1-0.1-0.1-0.2-0.1-0.3l-0.1-0.3"/>
	
		<linearGradient id="SVGID_3_" gradientUnits="userSpaceOnUse" x1="39.8472" y1="29.2547" x2="60.0271" y2="29.2547" gradientTransform="matrix(1 0 0 -1 -1.487 109.935)">
		<stop  offset="0" style="stop-color:#CCE0F4"/>
		<stop  offset="5.431000e-02" style="stop-color:#C3DCF2"/>
		<stop  offset="0.1447" style="stop-color:#A9D2EE"/>
		<stop  offset="0.26" style="stop-color:#80C2E7"/>
		<stop  offset="0.3942" style="stop-color:#47ACDE"/>
		<stop  offset="0.4812" style="stop-color:#1E9CD7"/>
		<stop  offset="0.8652" style="stop-color:#0075BE"/>
		<stop  offset="0.9944" style="stop-color:#0086B6"/>
	</linearGradient>
	<path class="st2" d="M57.8,61.6c-0.1,0.2-0.2,0.3-0.4,0.4L57,62.6c-0.1,0.2-0.3,0.3-0.4,0.5c-0.1,0.1-0.1,0.2-0.2,0.3l-0.1,0.3
		L56,64.1l-0.3,0.5c-0.2,0.4-0.3,0.8-0.5,1.1c-0.2,0.4-0.3,0.8-0.4,1.1l-0.2,0.6l-0.1,0.6l-0.2,0.6L54.2,69l-0.1,0.8l-0.1,0.3v0.3
		L54,71.6c0,0.4,0,0.8-0.1,1.2v1.3l0.1,2.4v1.1c0,0.4,0,0.8-0.1,1.1l-0.1,0.6l-0.1,0.5l-0.2,1.1c-0.1,0.4-0.1,0.8-0.3,1.1
		c-0.1,0.4-0.2,0.7-0.3,1.1L53,83.7l-0.2,0.6c-0.1,0.4-0.3,0.8-0.4,1.1c-0.3,0.8-0.5,1.4-0.8,2.2c-0.6,1.4-1.2,2.8-2,4.2
		c-0.2,0.3-0.3,0.6-0.5,0.9c0.3-1.4,0.3-2.9,0.1-4.4c-0.5,1.5-1.1,3-1.9,4.4c-1.2,1.7-2.6,3.3-4.3,4.6c-0.1,0.1-0.2,0.2-0.4,0.3
		l-0.4,0.3c-0.2,0.2-0.5,0.4-0.8,0.5l-0.8,0.5c-0.3,0.2-0.6,0.3-0.8,0.5c-0.3,0.2-0.6,0.3-0.8,0.5l-0.8,0.4c0.3-0.1,0.6-0.3,0.9-0.4
		c0.3-0.1,0.6-0.3,0.9-0.4c0.3-0.1,0.6-0.3,0.9-0.4l0.9-0.4c0.3-0.1,0.6-0.3,0.8-0.4l0.4-0.3c0.1-0.1,0.3-0.2,0.4-0.3
		c0.3-0.2,0.5-0.4,0.8-0.5l0.8-0.6l0.2-0.1l0.1-0.1l0.1-0.1c0.1-0.1,0.3-0.2,0.4-0.3l0.4-0.4c0.1-0.1,0.2-0.2,0.3-0.4
		c0.1-0.1,0.2-0.3,0.3-0.4c0.1-0.1,0.2-0.3,0.3-0.4l0.2-0.4L47.1,96l-0.6,3.1l1.9-2.6c0.5-0.7,0.9-1.3,1.4-2
		c0.4-0.7,0.8-1.4,1.3-2.1c0.4-0.7,0.8-1.4,1.1-2.1c0.2-0.4,0.3-0.8,0.5-1.1c0.1-0.4,0.3-0.8,0.4-1.1c0.3-0.8,0.6-1.5,0.8-2.3
		l0.4-1.1l0.2-0.6l0.1-0.6c0.1-0.4,0.2-0.8,0.3-1.2c0.1-0.4,0.1-0.8,0.2-1.2c0.1-0.4,0.1-0.8,0.1-1.2l0.1-0.6v-1.8
		c0-0.4,0-0.8-0.1-1.3L55,74.1c0-0.2-0.1-0.4-0.1-0.6v-1.7l0.1-1.1v-0.6l0.1-0.6l0.1-0.6l0.1-0.6c0.1-0.4,0.1-0.8,0.3-1.1
		c0.1-0.4,0.2-0.8,0.3-1.1c0.1-0.4,0.3-0.8,0.4-1.1l0.2-0.6l0.3-0.5l0.1-0.3c0.1-0.1,0.1-0.2,0.1-0.3c0.1-0.2,0.2-0.3,0.3-0.5
		c0.4-0.7,0.9-1.3,1.4-1.9C58.4,61.1,58.1,61.4,57.8,61.6z"/>
	
		<linearGradient id="SVGID_4_" gradientUnits="userSpaceOnUse" x1="87.4161" y1="32.3174" x2="98.6964" y2="32.3174" gradientTransform="matrix(1 0 0 -1 -1.487 109.935)">
		<stop  offset="0" style="stop-color:#CCE0F4"/>
		<stop  offset="5.431000e-02" style="stop-color:#C3DCF2"/>
		<stop  offset="0.1447" style="stop-color:#A9D2EE"/>
		<stop  offset="0.26" style="stop-color:#80C2E7"/>
		<stop  offset="0.3942" style="stop-color:#47ACDE"/>
		<stop  offset="0.4812" style="stop-color:#1E9CD7"/>
		<stop  offset="0.8652" style="stop-color:#0075BE"/>
		<stop  offset="0.9944" style="stop-color:#0086B6"/>
	</linearGradient>
	<path class="st3" d="M96.9,72.8c-0.1,0.3-0.3,0.5-0.4,0.8c-0.1,0.3-0.3,0.6-0.4,1c-0.1,0.2-0.2,0.4-0.3,0.6
		c-0.1,0.2-0.2,0.4-0.3,0.6c-0.2,0.4-0.4,0.8-0.6,1.3c-0.1,0.2-0.2,0.4-0.3,0.6c-0.1,0.2-0.3,0.4-0.4,0.6c-0.1,0.2-0.3,0.4-0.4,0.6
		c-0.1,0.2-0.3,0.4-0.4,0.6l-0.3,0.3L93,79.9c0,0,0,0.1-0.1,0.1h0L92.9,80c-0.1,0.1-0.2,0.2-0.3,0.3v0.1l-0.2,0.1
		c-0.1,0.1-0.2,0.1-0.3,0.2c-0.1,0.1-0.2,0.1-0.3,0.2c-0.2,0.1-0.4,0.2-0.6,0.3c-0.2,0.1-0.4,0.1-0.6,0.3c-0.2,0.1-0.4,0.1-0.6,0.2
		c-0.2,0.1-0.4,0.1-0.6,0.1c-0.2,0.1-0.4,0.1-0.6,0.1c-0.4,0.1-0.8,0.1-1.1,0.1c-0.3,0-0.6,0.1-0.9,0.1h-0.8
		c0.1,0.1,0.1,0.1,0.2,0.1c0.1,0.1,0.3,0.1,0.6,0.3c0.3,0.1,0.6,0.2,0.9,0.3c0.4,0.1,0.8,0.2,1.2,0.3c0.5,0.1,1,0.1,1.4,0.1
		c0.3,0,0.5-0.1,0.8-0.1c0.1,0,0.3-0.1,0.4-0.1c0.1,0,0.3-0.1,0.4-0.1c0.3-0.1,0.6-0.2,0.8-0.3c0.1-0.1,0.3-0.1,0.4-0.2
		c0.1-0.1,0.3-0.2,0.4-0.3l0.2-0.1l0.1-0.1h0.1l0.1-0.1c0.1-0.1,0.2-0.2,0.3-0.3c0.1-0.1,0.2-0.3,0.3-0.3l0.3-0.4
		c0.2-0.2,0.4-0.5,0.5-0.8c0.1-0.3,0.3-0.5,0.4-0.8l0.4-0.8c0.1-0.3,0.2-0.5,0.3-0.8c0.2-0.5,0.3-1,0.4-1.4c0.1-0.4,0.2-0.9,0.3-1.3
		c0.1-0.4,0.1-0.7,0.1-1.1c0-0.3,0.1-0.6,0.1-0.9v-0.8c0,0-0.1-0.1-0.1,0.1L96.9,72.8z"/>
	
		<linearGradient id="SVGID_5_" gradientUnits="userSpaceOnUse" x1="89.3571" y1="48.6665" x2="102.4571" y2="48.6665" gradientTransform="matrix(1 0 0 -1 -1.487 109.935)">
		<stop  offset="0" style="stop-color:#CCE0F4"/>
		<stop  offset="5.431000e-02" style="stop-color:#C3DCF2"/>
		<stop  offset="0.1447" style="stop-color:#A9D2EE"/>
		<stop  offset="0.26" style="stop-color:#80C2E7"/>
		<stop  offset="0.3942" style="stop-color:#47ACDE"/>
		<stop  offset="0.4812" style="stop-color:#1E9CD7"/>
		<stop  offset="0.8652" style="stop-color:#0075BE"/>
		<stop  offset="0.9944" style="stop-color:#0086B6"/>
	</linearGradient>
	<path class="st4" d="M93.4,55.9c-1.7-1.4-3.6-2.7-5.5-3.8c0,0,10.2,10.6,9.4,11.9c-0.8,1.3-3.9-0.2-3.9-0.2
		c0.3,1.1,0.9,2.1,1.8,2.9c1,0.6,2.9,1.1,2.9,1.6c-0.1,0.5-0.9,0.8-0.9,0.8s0.3,1.2,1.1,1.1c0.8-0.1,2.8-3.5,2.8-6
		C101,63,96.9,58.8,93.4,55.9z"/>
	
		<linearGradient id="SVGID_6_" gradientUnits="userSpaceOnUse" x1="10.5168" y1="89.8122" x2="80.8342" y2="89.8122" gradientTransform="matrix(1 0 0 -1 -1.487 109.935)">
		<stop  offset="0" style="stop-color:#CCE0F4"/>
		<stop  offset="5.431000e-02" style="stop-color:#C3DCF2"/>
		<stop  offset="0.1447" style="stop-color:#A9D2EE"/>
		<stop  offset="0.26" style="stop-color:#80C2E7"/>
		<stop  offset="0.3942" style="stop-color:#47ACDE"/>
		<stop  offset="0.4812" style="stop-color:#1E9CD7"/>
		<stop  offset="0.8652" style="stop-color:#0075BE"/>
		<stop  offset="0.9944" style="stop-color:#0086B6"/>
	</linearGradient>
	<path class="st5" d="M28,20c2.5-1.1,5.1-1.9,7.7-2.6c1.3-0.4,2.6-0.6,3.9-0.9c0.3-0.1,0.7-0.1,1-0.2c0.3-0.1,0.7-0.1,1-0.1l0.5-0.1
		h0.5c0.3,0,0.7-0.1,1-0.1c1.3-0.1,2.7-0.1,4-0.1c1.3,0,2.7,0.2,3.9,0.5c2.6,0.5,5,1.5,7.2,2.9c1.1,0.7,2,1.6,2.9,2.6
		c0.4,0.5,0.8,1,1.2,1.5c0.2,0.3,0.3,0.5,0.5,0.8l0.2,0.4l0.1,0.2c0,0.1,0.1,0.1,0.1,0.2l1.8,4.8l0.1-5.1v-1.9
		c0-0.6-0.1-1.3-0.1-1.9c0-0.3-0.1-0.7-0.1-1c-0.1-0.3-0.1-0.7-0.2-1l-0.1-0.3v-0.1l-0.1-0.1L65,17.8c-0.1-0.3-0.2-0.6-0.3-0.9
		c-0.1-0.3-0.2-0.6-0.3-0.9L64.2,15c-0.1-0.3-0.2-0.6-0.3-0.9l-0.4-0.9c-0.1-0.2-0.1-0.3-0.2-0.4c0.4,0.4,0.9,0.8,1.3,1.1
		c0.6,0.6,1.1,1.2,1.6,1.9c0.3,0.3,0.5,0.7,0.7,1c0.2,0.4,0.4,0.7,0.6,1.1c0.1,0.2,0.2,0.4,0.3,0.6l0.1,0.3v0.1l0.1,0.1
		c0.2,0.4,0.3,0.8,0.4,1.2l0.2,0.6l0.2,0.6c0.1,0.4,0.2,0.8,0.3,1.3c0.2,0.8,0.4,1.7,0.5,2.5l0.3,1.3c0.1,0.4,0.1,0.9,0.2,1.3
		l0.3,2.1l1.2-1.8l0.5-0.8l0.5-0.8c0.2-0.3,0.3-0.5,0.5-0.8l0.5-0.8l0.5-0.8c0.1-0.3,0.3-0.6,0.4-0.8l0.3-0.4l0.2-0.4l0.2-0.4
		l0.1-0.3l0.1-0.2c0.3-0.6,0.5-1.1,0.8-1.8c0.3-0.6,0.4-1.2,0.6-1.8c0.2-0.6,0.4-1.2,0.5-1.8c0-0.1,0.1-0.2,0.1-0.3
		c0.1,0.2,0.2,0.5,0.3,0.7l0.4,1.1c0.1,0.4,0.2,0.8,0.3,1.1c0.1,0.4,0.2,0.8,0.3,1.2c0.1,0.4,0.2,0.8,0.2,1.3c0,0.2,0,0.4,0.1,0.6
		v1.8c0,0.4-0.1,0.8-0.1,1.2c-0.1,0.4-0.1,0.8-0.3,1.2c-0.1,0.4-0.2,0.8-0.3,1.1c-0.1,0.4-0.2,0.8-0.4,1.2c-0.3,0.8-0.7,1.5-1.1,2.2
		c-0.4,0.7-0.8,1.4-1.3,2c0.6-0.6,1.1-1.3,1.5-1.9c0.5-0.7,0.9-1.4,1.2-2.1c0.7-1.5,1.2-3.1,1.4-4.7v-2.4c0-0.4-0.1-0.8-0.1-1.3
		c0-0.4-0.1-0.8-0.2-1.3c-0.1-0.4-0.1-0.8-0.3-1.2c-0.1-0.2-0.1-0.4-0.1-0.6c-0.1-0.2-0.1-0.4-0.2-0.6c-0.1-0.4-0.3-0.8-0.4-1.2
		c-0.1-0.4-0.3-0.8-0.5-1.2l-0.7-1.3L76.6,14c-0.1,0.3-0.1,0.6-0.2,0.9c-0.1,0.3-0.2,0.6-0.3,0.9c-0.2,0.6-0.4,1.1-0.6,1.8
		c-0.2,0.6-0.4,1.1-0.7,1.7c-0.3,0.6-0.5,1.1-0.8,1.6L74,21l-0.4,1l-0.3,0.4c-0.1,0.3-0.3,0.5-0.4,0.8l-0.5,0.8l-0.5,0.8
		c-0.1,0.2-0.2,0.3-0.4,0.5c0-0.2-0.1-0.4-0.1-0.5c-0.1-0.9-0.3-1.8-0.5-2.6c-0.1-0.4-0.2-0.9-0.3-1.3l-0.2-0.6l-0.2-0.6
		c-0.1-0.4-0.3-0.9-0.4-1.3L69.8,18l-0.1-0.1v-0.1l-0.1-0.3c-0.1-0.2-0.2-0.4-0.3-0.6c-0.2-0.4-0.4-0.8-0.7-1.2
		c-0.3-0.4-0.5-0.8-0.8-1.1c-0.5-0.7-1.1-1.4-1.8-2c-0.7-0.7-1.4-1.3-2.1-1.8c-0.4-0.3-0.8-0.6-1.2-0.8c-0.2-0.1-0.4-0.3-0.6-0.4
		l-0.3-0.2c-0.1-0.1-0.2-0.1-0.4-0.2l-2.6-1.2l1.4,2.6c0.1,0.3,0.3,0.5,0.4,0.8c0.1,0.3,0.3,0.6,0.4,0.8l0.8,1.7
		c0.1,0.3,0.2,0.6,0.3,0.9c0.1,0.3,0.2,0.6,0.3,0.9l0.3,0.9c0.1,0.3,0.2,0.6,0.3,0.9c0.1,0.3,0.2,0.6,0.3,0.9l0.1,0.4v0.3l0.1,0.3
		c0.1,0.3,0.1,0.6,0.1,0.9c0.2,0.2,0.2,0.5,0.2,0.8v0.1c-0.1-0.1-0.2-0.2-0.3-0.4c-1-1.1-2.1-2-3.3-2.8c-1.2-0.8-2.5-1.5-3.8-2
		c-1.3-0.5-2.7-0.9-4.1-1.2c-1.4-0.2-2.8-0.4-4.3-0.4c-1.4-0.1-2.8,0-4.3,0.1c-0.4,0-0.7,0.1-1.1,0.1h-0.3l-0.3,0.1l-0.5,0.1
		c-0.4,0.1-0.7,0.1-1.1,0.1c-0.4,0.1-0.7,0.1-1.1,0.2c-1.4,0.3-2.8,0.6-4.1,1c-2.7,0.8-5.3,1.8-7.8,2.9c-2.5,1.2-5,2.5-7.3,3.9
		c-1.2,0.7-2.3,1.4-3.4,2.3c-1.1,0.8-2.3,1.6-3.4,2.4c-1.4,1.1-2.7,2.2-4,3.3c-0.1,0.1-0.1,0.2-0.2,0.3c0.4-0.3,0.8-0.6,1.1-0.9
		l3.4-2.3c2.3-1.5,4.6-2.9,7-4.2c1.2-0.6,2.4-1.3,3.6-1.9C25.4,21.1,26.6,20.5,28,20z"/>
	
		<linearGradient id="SVGID_7_" gradientUnits="userSpaceOnUse" x1="59.4001" y1="35.2874" x2="71.0652" y2="35.2874" gradientTransform="matrix(1 0 0 -1 -1.487 109.935)">
		<stop  offset="0" style="stop-color:#CCE0F4"/>
		<stop  offset="5.431000e-02" style="stop-color:#C3DCF2"/>
		<stop  offset="0.1447" style="stop-color:#A9D2EE"/>
		<stop  offset="0.26" style="stop-color:#80C2E7"/>
		<stop  offset="0.3942" style="stop-color:#47ACDE"/>
		<stop  offset="0.4812" style="stop-color:#1E9CD7"/>
		<stop  offset="0.8652" style="stop-color:#0075BE"/>
		<stop  offset="0.9944" style="stop-color:#0086B6"/>
	</linearGradient>
	<path class="st6" d="M69.5,76.9l-0.1-0.8l-0.1-0.8c-0.1-0.5-0.1-1-0.3-1.5c-0.1-0.5-0.2-1-0.3-1.5c-0.1-0.5-0.3-1-0.4-1.4l-0.2-0.8
		l-0.3-0.7c-0.1-0.5-0.4-0.9-0.5-1.4c-0.2-0.5-0.4-1-0.6-1.4l-1.3-2.6c-0.1-0.2-0.2-0.4-0.3-0.6l-0.3-0.6l-0.6-1.3l-0.5-1.4
		c-0.1-0.1-0.1-0.3-0.1-0.3l-0.1-0.4l-0.2-0.7l-0.2-0.7l-0.1-0.7c-0.1-0.5-0.2-1-0.3-1.4c-0.1-0.5-0.1-0.9-0.2-1.4
		c0-0.5-0.1-0.9-0.1-1.4v-0.8l0.1-0.8v-0.4c0-0.1,0-0.3,0.1-0.4c0-0.3,0.1-0.5,0.1-0.8c0.1-1,0.4-1.9,0.8-2.8
		c-0.2,0.4-0.4,0.9-0.6,1.3c-0.1,0.3-0.2,0.4-0.3,0.7l-0.3,0.7l-0.2,0.8c0,0.1-0.1,0.3-0.1,0.4l-0.1,0.4L62,52.2l-0.1,0.7
		c-0.1,1-0.1,2,0,3c0,0.3,0,0.5,0.1,0.8l0.1,0.8l0.1,0.8l0.1,0.8l0.1,0.8l0.1,0.4c0,0.1,0.1,0.3,0.1,0.4l0.4,1.4
		c0.1,0.5,0.3,1,0.5,1.4l0.3,0.7c0.1,0.2,0.2,0.5,0.3,0.7l1.2,2.7c0.2,0.4,0.4,0.9,0.5,1.3c0.1,0.4,0.3,0.9,0.4,1.4l0.2,0.7l0.2,0.7
		c0.1,0.4,0.2,0.9,0.3,1.4c0.1,0.5,0.2,1,0.3,1.4c0.1,0.5,0.1,0.9,0.2,1.4l0.1,0.7l0.1,0.7c0.1,0.5,0.1,0.9,0.1,1.4
		c0.1,0.9,0.1,1.9,0.1,2.9c0,1.9-0.1,3.9-0.4,5.8l-0.2,1.3c-0.4-1.8-1-3.6-1.9-5.2c0.1,2,0,3.9-0.2,5.9c-0.6,2.5-1.5,5-2.9,7.2
		c-0.1,0.2-0.2,0.3-0.3,0.5l-0.3,0.5c-0.3,0.3-0.4,0.6-0.7,0.9l-0.7,0.9c-0.2,0.3-0.5,0.6-0.7,0.9l-0.8,0.9l-0.8,0.9
		c0.3-0.3,0.6-0.5,0.9-0.8c0.3-0.3,0.6-0.6,0.9-0.8c0.3-0.3,0.6-0.6,0.8-0.9l0.8-0.9l0.8-0.9l0.4-0.4c0.1-0.2,0.3-0.3,0.4-0.5
		l0.8-0.9l0.6-1l0.2-0.3v-0.1l0.1-0.1l0.1-0.1c0.1-0.2,0.2-0.4,0.3-0.6l0.3-0.6l0.2-0.6l0.2-0.6l0.2-0.6l0.1-0.6v-0.1l0.5,2.4
		l0.8,3.9l1.1-3.9c0.3-1,0.5-1.9,0.7-2.9c0.2-1,0.4-1.9,0.5-2.9c0.1-1,0.3-2,0.3-3c0.1-0.5,0.1-1,0.1-1.5v-1.5c0-1,0-2-0.1-3
		C69.6,77.9,69.6,77.4,69.5,76.9z"/>
	
		<linearGradient id="SVGID_8_" gradientUnits="userSpaceOnUse" x1="74.128" y1="65.088" x2="90.5483" y2="65.088" gradientTransform="matrix(1 0 0 -1 -1.487 109.935)">
		<stop  offset="0" style="stop-color:#CCE0F4"/>
		<stop  offset="5.431000e-02" style="stop-color:#C3DCF2"/>
		<stop  offset="0.1447" style="stop-color:#A9D2EE"/>
		<stop  offset="0.26" style="stop-color:#80C2E7"/>
		<stop  offset="0.3942" style="stop-color:#47ACDE"/>
		<stop  offset="0.4812" style="stop-color:#1E9CD7"/>
		<stop  offset="0.8652" style="stop-color:#0075BE"/>
		<stop  offset="0.9944" style="stop-color:#0086B6"/>
	</linearGradient>
	<path class="st7" d="M87.1,49.6l2,0.9l-0.8-1.9c-0.1-0.4-0.3-0.7-0.5-1.1c-0.2-0.4-0.3-0.7-0.5-1.1c-0.2-0.4-0.4-0.7-0.6-1.1
		c-0.2-0.4-0.4-0.7-0.6-1c-0.2-0.3-0.4-0.7-0.6-1l-0.6-0.9c-0.3-0.4-0.4-0.6-0.7-1l-0.8-0.9c-0.5-0.6-1-1.3-1.5-1.8
		c-0.3-0.3-0.6-0.6-0.9-0.8c-0.3-0.2-0.6-0.5-0.9-0.8l-0.9-0.8c-0.3-0.2-0.6-0.5-0.9-0.7c-0.3-0.3-0.6-0.4-1-0.7
		c-0.3-0.2-0.7-0.4-1-0.6c0.6,0.5,1.2,1.1,1.7,1.6l0.8,0.8c0.3,0.3,0.5,0.6,0.8,0.8c0.3,0.3,0.5,0.6,0.8,0.9
		c0.3,0.3,0.5,0.6,0.8,0.9c0.2,0.3,0.5,0.6,0.7,0.9c0.3,0.3,0.4,0.6,0.7,0.9c0.2,0.3,0.4,0.6,0.6,0.9l0.6,0.9l0.6,1
		c0.2,0.3,0.4,0.7,0.5,1c0.2,0.3,0.3,0.7,0.5,1c0.2,0.3,0.3,0.7,0.5,1c0.1,0.1,0.1,0.2,0.1,0.3c-0.1,0-0.2-0.1-0.3-0.1L84.9,47
		l-0.8-0.2l-0.8-0.1c-0.3-0.1-0.5-0.1-0.8-0.1l-0.7-0.1h-0.4l-0.4-0.1l-0.8-0.1h-2.3c-0.3,0-0.5,0.1-0.8,0.1c-0.3,0-0.5,0.1-0.8,0.1
		c-0.1,0-0.3,0-0.4,0.1c-0.2,0-0.3,0.1-0.4,0.1l-2.9,0.9l2.9,0.5c0.2,0.1,0.5,0.1,0.7,0.1c0.3,0.1,0.5,0.1,0.7,0.2
		c0.5,0.1,0.9,0.3,1.4,0.5l1.3,0.6c0.4,0.2,0.8,0.5,1.2,0.8c0.1,0.1,0.2,0.1,0.3,0.3l0.1,0.1l0.1,0.1l0.3,0.3l0.3,0.3
		c0.1,0.1,0.1,0.2,0.3,0.3c0.1,0.1,0.1,0.2,0.2,0.3c0.1,0.2,0.3,0.4,0.4,0.6c0.1,0.2,0.2,0.4,0.3,0.6c0.1,0.2,0.2,0.5,0.3,0.7
		c0.2,0.5,0.3,0.9,0.4,1.4v-0.8c0-0.3-0.6-3.1-0.6-3.3L82.7,51l-0.3-0.3c-0.1-0.1-0.1-0.2-0.3-0.3L82,50.2L82,50.2l-0.1-0.1
		c-0.1-0.1-0.2-0.2-0.3-0.3c-0.4-0.4-0.8-0.7-1.3-1.1c-0.4-0.3-0.8-0.5-1.2-0.8h0.3c0.2,0,0.5,0,0.7,0.1l0.7,0.1l0.7,0.1l0.7,0.1
		c0.3,0.1,0.5,0.1,0.7,0.1l0.7,0.1c0.2,0.1,0.5,0.1,0.7,0.1c0.3,0.1,0.4,0.1,0.7,0.2c0.3,0.1,0.4,0.1,0.7,0.2
		c0.2,0.1,0.5,0.1,0.7,0.3C86.7,49.4,86.9,49.5,87.1,49.6z"/>
	
		<linearGradient id="SVGID_9_" gradientUnits="userSpaceOnUse" x1="22.2995" y1="85.907" x2="63.0354" y2="85.907" gradientTransform="matrix(1 0 0 -1 -1.487 109.935)">
		<stop  offset="0" style="stop-color:#CCE0F4"/>
		<stop  offset="5.431000e-02" style="stop-color:#C3DCF2"/>
		<stop  offset="0.1447" style="stop-color:#A9D2EE"/>
		<stop  offset="0.26" style="stop-color:#80C2E7"/>
		<stop  offset="0.3942" style="stop-color:#47ACDE"/>
		<stop  offset="0.4812" style="stop-color:#1E9CD7"/>
		<stop  offset="0.8652" style="stop-color:#0075BE"/>
		<stop  offset="0.9944" style="stop-color:#0086B6"/>
	</linearGradient>
	<path class="st8" d="M42.9,20.2c1.4-0.2,2.8-0.3,4.2-0.3h0.5c0.2,0,0.3,0.1,0.5,0.1c0.2,0,0.3,0,0.5,0.1c0.2,0,0.3,0.1,0.5,0.1
		c0.2,0,0.4,0.1,0.5,0.1c0.2,0,0.3,0.1,0.5,0.1c0.3,0.1,0.6,0.2,0.9,0.3c2.3,0.7,4.5,1.8,6.3,3.4c0.7,0.6,1.4,1.3,2,2.1
		c0.5,0.6,0.9,1.2,1.3,1.8c0.3,0.6,0.6,0.9,0.7,1.3c0.1,0.3,0.2,0.4,0.2,0.4c-0.1-0.2-0.1-0.3-0.1-0.5c-0.1-0.3-0.3-0.8-0.5-1.4
		c-0.3-0.7-0.7-1.4-1.1-2c-0.5-0.8-1.2-1.6-1.9-2.3c-0.4-0.4-0.8-0.8-1.3-1.2c-0.5-0.4-1-0.7-1.6-1.1c-1.2-0.7-2.4-1.3-3.7-1.7
		c-0.3-0.1-0.7-0.2-1.1-0.3C50.1,19,49.9,19,49.8,19c-0.2-0.1-0.4-0.1-0.5-0.1c-0.2,0-0.3,0-0.5-0.1c-0.2,0-0.4-0.1-0.6-0.1
		c-0.2,0-0.4-0.1-0.6-0.1c-0.2,0-0.4,0-0.6-0.1c-1.5-0.1-3,0-4.5,0.3c-1.5,0.2-2.9,0.5-4.3,0.9c-1.4,0.4-2.8,0.8-4.1,1.3
		c-1.3,0.4-2.5,0.9-3.7,1.4s-2.3,1-3.2,1.4c-1,0.5-1.9,0.9-2.7,1.4c-0.8,0.4-1.4,0.8-2,1.1c-1.1,0.7-1.8,1.1-1.8,1.1
		c0.2-0.1,0.3-0.2,0.5-0.3c0.3-0.1,0.8-0.3,1.4-0.6c0.6-0.3,1.3-0.6,2.1-0.9c0.8-0.3,1.8-0.7,2.8-1.1c1-0.4,2.1-0.8,3.3-1.3
		c1.2-0.4,2.4-0.8,3.7-1.3c1.3-0.5,2.7-0.8,4-1.1C40.1,20.7,41.4,20.4,42.9,20.2z"/>
	
		<linearGradient id="SVGID_10_" gradientUnits="userSpaceOnUse" x1="65.9188" y1="40.6137" x2="84.4067" y2="40.6137" gradientTransform="matrix(1 0 0 -1 -1.487 109.935)">
		<stop  offset="0" style="stop-color:#CCE0F4"/>
		<stop  offset="5.431000e-02" style="stop-color:#C3DCF2"/>
		<stop  offset="0.1447" style="stop-color:#A9D2EE"/>
		<stop  offset="0.26" style="stop-color:#80C2E7"/>
		<stop  offset="0.3942" style="stop-color:#47ACDE"/>
		<stop  offset="0.4812" style="stop-color:#1E9CD7"/>
		<stop  offset="0.8652" style="stop-color:#0075BE"/>
		<stop  offset="0.9944" style="stop-color:#0086B6"/>
	</linearGradient>
	<path class="st9" d="M81.8,78.6c-0.2-0.4-0.4-0.8-0.6-1.1l-0.3-0.6c-0.1-0.2-0.2-0.4-0.3-0.6l-0.2-0.3c-0.1-0.1-0.2-0.2-0.3-0.3
		l-0.5-0.5c-0.4-0.3-0.8-0.5-1.3-0.8c-0.4-0.2-0.9-0.3-1.4-0.4c-0.1,0-0.2,0-0.3-0.1c0.1-0.2,0.1-0.3,0.2-0.5c0.2-0.5,0.3-1,0.3-1.6
		c0.1-0.5,0.1-1,0-1.6c0-0.5-0.1-1-0.2-1.5l-0.4-1.5c-0.1-0.5-0.3-1-0.5-1.4l-0.3-0.7l-0.3-0.7L75.1,64c-0.1-0.3-0.3-0.4-0.4-0.7
		c-0.1-0.2-0.2-0.4-0.4-0.6c-0.1-0.2-0.3-0.4-0.4-0.6c-0.3-0.4-0.7-0.8-1.1-1.1c-0.8-0.6-1.7-1.2-2.6-1.6c-0.9-0.4-1.9-0.8-2.8-1
		c-0.5-0.1-1-0.2-1.4-0.3c-0.5-0.1-1-0.2-1.5-0.3c0.9,0.3,1.8,0.7,2.8,1.1c0.9,0.4,1.7,0.8,2.6,1.3c0.8,0.5,1.6,1.1,2.3,1.7
		c0.3,0.3,0.6,0.6,0.8,1c0.1,0.2,0.2,0.4,0.3,0.6c0.1,0.2,0.2,0.4,0.3,0.6c0.2,0.4,0.4,0.8,0.6,1.3c0.2,0.4,0.4,0.9,0.5,1.3
		c0.2,0.4,0.3,0.9,0.4,1.3c0.1,0.4,0.2,0.9,0.3,1.3c0.1,0.4,0.2,0.9,0.2,1.3c0,0.4,0,0.9,0,1.3c0,0.4-0.1,0.9-0.2,1.3
		c0,0.2-0.1,0.4-0.2,0.6c-0.3,0.6-0.7,1.2-1.2,1.8l1.6-0.1h0.6c0.2,0,0.4,0,0.6,0.1c0.4,0.1,0.8,0.1,1.1,0.3c0.4,0.1,0.7,0.3,1,0.5
		c0.1,0.1,0.3,0.2,0.4,0.3l0.2,0.2l0.2,0.3c0.1,0.2,0.3,0.3,0.4,0.5l0.5,0.4l0.8,1l0.8,1c0.3,0.3,0.6,0.7,0.8,1
		c-0.1-0.4-0.3-0.8-0.5-1.2C82.2,79.4,82,79,81.8,78.6z"/>
</g>
</svg>
